<?xml version="1.0" standalone="no"?>
<!DOCTYPE svg PUBLIC "-//W3C//DTD SVG 20010904//EN"
 "http://www.w3.org/TR/2001/REC-SVG-20010904/DTD/svg10.dtd">
<svg version="1.0" xmlns="http://www.w3.org/2000/svg"
 width="123.000000pt" height="125.000000pt" viewBox="0 0 123.000000 125.000000"
 preserveAspectRatio="xMidYMid meet">

<g transform="translate(0.000000,125.000000) scale(0.100000,-0.100000)"
fill="#000000" stroke="none">
<path d="M440 1205 c0 -8 9 -15 20 -15 16 0 20 -7 20 -35 0 -28 4 -35 20 -35
17 0 20 -7 20 -40 0 -29 4 -40 15 -40 8 0 15 -9 15 -20 0 -11 -7 -20 -15 -20
-8 0 -15 9 -15 20 0 13 -7 20 -19 20 -10 0 -21 7 -25 15 -4 12 -33 15 -171 15
-140 0 -165 -2 -165 -15 0 -11 -11 -15 -40 -15 -33 0 -40 -3 -40 -20 0 -15 -7
-20 -25 -20 -16 0 -25 -6 -25 -15 0 -12 20 -15 119 -15 110 0 119 -1 124 -20
4 -17 14 -20 61 -20 43 0 56 -3 56 -15 0 -10 11 -15 35 -15 31 0 35 -3 35 -25
0 -25 0 -25 -95 -25 -88 0 -95 -1 -95 -20 0 -11 -7 -20 -15 -20 -9 0 -18 -7
-21 -15 -4 -9 -19 -15 -40 -15 -32 0 -34 -2 -34 -35 0 -28 -4 -35 -20 -35 -14
0 -20 -7 -20 -21 0 -12 -8 -23 -20 -26 -18 -5 -20 -14 -20 -74 0 -67 1 -69 25
-69 13 0 28 6 32 13 4 8 16 16 26 20 9 3 17 13 17 21 0 8 9 17 19 21 11 3 23
15 26 26 4 13 15 19 36 19 17 0 32 6 35 15 4 10 20 15 45 15 32 0 39 3 39 20
0 18 7 20 60 20 47 0 60 3 60 15 0 8 9 15 20 15 11 0 20 -7 20 -15 0 -8 -9
-15 -20 -15 -17 0 -20 -7 -20 -45 0 -38 -3 -45 -20 -45 -16 0 -20 -7 -20 -34
0 -21 -6 -36 -15 -40 -11 -4 -15 -22 -15 -76 0 -63 -2 -70 -20 -70 -17 0 -20
-7 -20 -50 0 -43 -3 -50 -20 -50 -17 0 -19 -8 -22 -77 l-3 -78 -57 -3 c-43 -2
-58 -7 -58 -17 0 -10 -11 -15 -35 -15 -28 0 -35 -4 -35 -20 0 -13 -7 -20 -20
-20 -11 0 -20 -6 -20 -13 0 -7 -9 -18 -20 -25 -11 -7 -20 -17 -20 -22 0 -12
606 -14 614 -2 3 5 -6 15 -19 22 -14 7 -25 19 -25 27 0 7 -9 13 -20 13 -13 0
-20 7 -20 20 0 16 -7 20 -34 20 -21 0 -36 6 -40 15 -4 11 -21 15 -66 15 l-60
0 0 79 c0 75 1 80 23 83 20 3 22 9 25 74 2 62 6 73 22 77 16 4 20 14 20 49 0
32 5 46 20 56 14 8 20 23 20 47 0 24 5 35 15 35 10 0 15 11 15 35 0 31 3 35
25 35 18 0 25 -5 25 -20 0 -17 7 -20 40 -20 29 0 40 -4 40 -15 0 -8 7 -15 15
-15 10 0 15 -10 15 -34 0 -25 8 -39 32 -60 17 -14 35 -26 39 -26 4 0 9 -15 11
-32 2 -25 8 -34 26 -36 18 -3 22 -10 22 -37 0 -20 6 -35 15 -39 8 -3 15 -15
15 -26 0 -27 7 -25 41 11 28 30 29 35 29 125 0 83 -2 94 -20 104 -13 7 -20 21
-20 40 0 20 -5 30 -15 30 -9 0 -20 11 -25 25 -5 14 -16 25 -24 25 -7 0 -16 7
-20 15 -3 9 -18 15 -36 15 -23 0 -30 4 -30 20 0 16 7 20 35 20 23 0 35 5 35
14 0 22 23 26 145 26 122 0 145 -4 145 -26 0 -10 15 -14 55 -14 42 0 55 3 55
15 0 9 -9 15 -21 15 -12 0 -23 8 -26 20 -3 11 -12 20 -19 20 -8 0 -19 11 -24
25 -5 14 -16 25 -24 25 -8 0 -16 4 -18 10 -2 8 -25 15 -59 19 -4 1 -9 10 -12
21 -5 19 -14 20 -135 20 -106 0 -131 3 -136 15 -3 8 -12 15 -21 15 -11 0 -15
12 -15 50 0 53 -18 82 -59 95 -12 3 -21 15 -21 26 0 12 -7 19 -19 19 -10 0
-21 7 -25 15 -8 22 -146 22 -146 0z"/>
</g>
</svg>
